<svg width="460" height="1080" viewBox="0 0 460 1080" class="keymap" xmlns="http://www.w3.org/2000/svg" xmlns:xlink="http://www.w3.org/1999/xlink">
<defs>/* start glyphs */
<svg id="mdi:arrow-down-bold">
<svg xmlns="http://www.w3.org/2000/svg" id="mdi-arrow-down-bold" viewBox="0 0 24 24"><path d="M9,4H15V12H19.84L12,19.84L4.16,12H9V4Z" /></svg>
</svg>
<svg id="mdi:arrow-left-bold">
<svg xmlns="http://www.w3.org/2000/svg" id="mdi-arrow-left-bold" viewBox="0 0 24 24"><path d="M20,9V15H12V19.84L4.16,12L12,4.16V9H20Z" /></svg>
</svg>
<svg id="mdi:arrow-right-bold">
<svg xmlns="http://www.w3.org/2000/svg" id="mdi-arrow-right-bold" viewBox="0 0 24 24"><path d="M4,15V9H12V4.16L19.84,12L12,19.84V15H4Z" /></svg>
</svg>
<svg id="mdi:arrow-up-bold">
<svg xmlns="http://www.w3.org/2000/svg" id="mdi-arrow-up-bold" viewBox="0 0 24 24"><path d="M15,20H9V12H4.16L12,4.16L19.84,12H15V20Z" /></svg>
</svg>
<svg id="mdi:backspace">
<svg xmlns="http://www.w3.org/2000/svg" id="mdi-backspace" viewBox="0 0 24 24"><path d="M22,3H7C6.31,3 5.77,3.35 5.41,3.88L0,12L5.41,20.11C5.77,20.64 6.31,21 7,21H22A2,2 0 0,0 24,19V5A2,2 0 0,0 22,3M19,15.59L17.59,17L14,13.41L10.41,17L9,15.59L12.59,12L9,8.41L10.41,7L14,10.59L17.59,7L19,8.41L15.41,12" /></svg>
</svg>
<svg id="mdi:backspace-reverse-outline">
<svg xmlns="http://www.w3.org/2000/svg" id="mdi-backspace-reverse-outline" viewBox="0 0 24 24"><path d="M5,15.59L6.41,17L10,13.41L13.59,17L15,15.59L11.41,12L15,8.41L13.59,7L10,10.59L6.41,7L5,8.41L8.59,12L5,15.59M2,3A2,2 0 0,0 0,5V19A2,2 0 0,0 2,21H17C17.69,21 18.23,20.64 18.59,20.11L24,12L18.59,3.88C18.23,3.35 17.69,3 17,3H2M2,5H17L21.72,12L17,19H2V5Z" /></svg>
</svg>
<svg id="mdi:bluetooth-connect">
<svg xmlns="http://www.w3.org/2000/svg" id="mdi-bluetooth-connect" viewBox="0 0 24 24"><path d="M19,10L17,12L19,14L21,12M14.88,16.29L13,18.17V14.41M13,5.83L14.88,7.71L13,9.58M17.71,7.71L12,2H11V9.58L6.41,5L5,6.41L10.59,12L5,17.58L6.41,19L11,14.41V22H12L17.71,16.29L13.41,12M7,12L5,10L3,12L5,14L7,12Z" /></svg>
</svg>
<svg id="mdi:bluetooth-off">
<svg xmlns="http://www.w3.org/2000/svg" id="mdi-bluetooth-off" viewBox="0 0 24 24"><path d="M13,5.83L14.88,7.71L13.28,9.31L14.69,10.72L17.71,7.7L12,2H11V7.03L13,9.03M5.41,4L4,5.41L10.59,12L5,17.59L6.41,19L11,14.41V22H12L16.29,17.71L18.59,20L20,18.59M13,18.17V14.41L14.88,16.29" /></svg>
</svg>
<svg id="mdi:keyboard-return">
<svg xmlns="http://www.w3.org/2000/svg" id="mdi-keyboard-return" viewBox="0 0 24 24"><path d="M19,7V11H5.83L9.41,7.41L8,6L2,12L8,18L9.41,16.58L5.83,13H21V7H19Z" /></svg>
</svg>
<svg id="mdi:keyboard-space">
<svg xmlns="http://www.w3.org/2000/svg" id="mdi-keyboard-space" viewBox="0 0 24 24"><path d="M3 15H5V19H19V15H21V19C21 20.1 20.1 21 19 21H5C3.9 21 3 20.1 3 19V15Z" /></svg>
</svg>
</defs>/* end glyphs */
<style>/* inherit to force styles through use tags */
svg path {
    fill: inherit;
}

/* font and background color specifications */
svg.keymap {
    font-family: SFMono-Regular,Consolas,Liberation Mono,Menlo,monospace;
    font-size: 14px;
    font-kerning: normal;
    text-rendering: optimizeLegibility;
    fill: #24292e;
}

/* default key styling */
rect.key {
    fill: #f6f8fa;
}

rect.key, rect.combo {
    stroke: #c9cccf;
    stroke-width: 1;
}

/* default key side styling, only used is draw_key_sides is set */
rect.side {
    filter: brightness(90%);
}

/* color accent for combo boxes */
rect.combo, rect.combo-separate {
    fill: #cdf;
}

/* color accent for held keys */
rect.held, rect.combo.held {
    fill: #fdd;
}

/* color accent for ghost (optional) keys */
rect.ghost, rect.combo.ghost {
    stroke-dasharray: 4, 4;
    stroke-width: 2;
}

text {
    text-anchor: middle;
    dominant-baseline: middle;
}

/* styling for layer labels */
text.label {
    font-weight: bold;
    text-anchor: start;
    stroke: white;
    stroke-width: 4;
    paint-order: stroke;
}

/* styling for optional footer */
text.footer {
    text-anchor: end;
    dominant-baseline: auto;
    stroke: white;
    stroke-width: 4;
    paint-order: stroke;
}

/* styling for combo tap, and key non-tap label text */
text.combo, text.hold, text.shifted, text.left, text.right {
    font-size: 11px;
}

text.hold {
    text-anchor: middle;
    dominant-baseline: auto;
}

text.shifted {
    text-anchor: middle;
    dominant-baseline: hanging;
}

text.left {
    text-anchor: start;
}

text.right {
    text-anchor: end;
}

text.layer-activator {
    text-decoration: underline;
}

/* styling for hold/shifted label text in combo box */
text.combo.hold, text.combo.shifted, text.combo.left, text.combo.right {
    font-size: 8px;
}

/* lighter symbol for transparent keys */
text.trans {
    fill: #7b7e81;
}

/* styling for combo dendrons */
path.combo {
    stroke-width: 1;
    stroke: gray;
    fill: none;
}

/* Start Tabler Icons Cleanup */
/* cannot use height/width with glyphs */
.icon-tabler > path {
    fill: inherit;
    stroke: inherit;
    stroke-width: 2;
}
/* hide tabler's default box */
.icon-tabler > path[stroke="none"][fill="none"] {
    visibility: hidden;
}
/* End Tabler Icons Cleanup */
</style>
<g transform="translate(30, 0)" class="layer-Nav">
<text x="0" y="15" class="label" id="Nav">Nav</text>
<g transform="translate(0, 30)">
<g transform="translate(40, 40)" class="key keypos-0">
<rect rx="4" ry="4" x="-38" y="-38" width="77" height="77" class="key side"/>
<rect rx="4" ry="4" x="-32" y="-36" width="65" height="65" class="key"/>
<use href="#mdi:arrow-up-bold" xlink:href="#mdi:arrow-up-bold" x="-11" y="-15" height="22" width="22.0" class="key tap glyph mdi:arrow-up-bold"/>
<text x="0" y="34" class="key hold"><tspan style="font-size: 83%">toggle</tspan></text>
</g>
<g transform="translate(120, 40)" class="key keypos-1">
<rect rx="4" ry="4" x="-38" y="-38" width="77" height="77" class="key side"/>
<rect rx="4" ry="4" x="-32" y="-36" width="65" height="65" class="key"/>
<use href="#mdi:keyboard-space" xlink:href="#mdi:keyboard-space" x="-11" y="-15" height="22" width="22.0" class="key tap glyph mdi:keyboard-space"/>
<text x="0" y="34" class="key hold"><tspan style="font-size: 83%">toggle</tspan></text>
</g>
<g transform="translate(200, 40)" class="key keypos-2">
<rect rx="4" ry="4" x="-38" y="-38" width="77" height="77" class="key side"/>
<rect rx="4" ry="4" x="-32" y="-36" width="65" height="65" class="key"/>
<use href="#mdi:backspace-reverse-outline" xlink:href="#mdi:backspace-reverse-outline" x="-11" y="-15" height="22" width="22.0" class="key tap glyph mdi:backspace-reverse-outline"/>
<text x="0" y="34" class="key hold"><tspan style="font-size: 83%">toggle</tspan></text>
</g>
<g transform="translate(280, 40)" class="key keypos-3">
<rect rx="4" ry="4" x="-38" y="-38" width="77" height="77" class="key side"/>
<rect rx="4" ry="4" x="-32" y="-36" width="65" height="65" class="key"/>
<use href="#mdi:backspace" xlink:href="#mdi:backspace" x="-11" y="-15" height="22" width="22.0" class="key tap glyph mdi:backspace"/>
<text x="0" y="34" class="key hold"><tspan style="font-size: 83%">toggle</tspan></text>
</g>
<g transform="translate(40, 120)" class="key keypos-4">
<rect rx="4" ry="4" x="-38" y="-38" width="77" height="77" class="key side"/>
<rect rx="4" ry="4" x="-32" y="-36" width="65" height="65" class="key"/>
<text x="0" y="-4" class="key tap">HOME</text>
<text x="0" y="34" class="key hold"><tspan style="font-size: 83%">toggle</tspan></text>
</g>
<g transform="translate(120, 120)" class="key keypos-5">
<rect rx="4" ry="4" x="-38" y="-38" width="77" height="77" class="key side"/>
<rect rx="4" ry="4" x="-32" y="-36" width="65" height="65" class="key"/>
<text x="0" y="-4" class="key tap">Ctl+D</text>
<text x="0" y="34" class="key hold"><tspan style="font-size: 83%">toggle</tspan></text>
</g>
<g transform="translate(200, 120)" class="key keypos-6">
<rect rx="4" ry="4" x="-38" y="-38" width="77" height="77" class="key side"/>
<rect rx="4" ry="4" x="-32" y="-36" width="65" height="65" class="key"/>
<text x="0" y="-4" class="key tap">
<tspan x="0" dy="-1.0em">PAGE</tspan><tspan x="0" dy="1.0em">UP</tspan>
</text>
<text x="0" y="34" class="key hold"><tspan style="font-size: 83%">toggle</tspan></text>
</g>
<g transform="translate(280, 120)" class="key keypos-7">
<rect rx="4" ry="4" x="-38" y="-38" width="77" height="77" class="key side"/>
<rect rx="4" ry="4" x="-32" y="-36" width="65" height="65" class="key"/>
<text x="0" y="-4" class="key tap"><tspan style="font-size: 62%">&amp;git_pu…</tspan></text>
</g>
<g transform="translate(40, 200)" class="key keypos-8">
<rect rx="4" ry="4" x="-38" y="-38" width="77" height="77" class="key side"/>
<rect rx="4" ry="4" x="-32" y="-36" width="65" height="65" class="key"/>
<text x="0" y="-4" class="key tap">END</text>
<text x="0" y="34" class="key hold"><tspan style="font-size: 83%">toggle</tspan></text>
</g>
<g transform="translate(120, 200)" class="key keypos-9">
<rect rx="4" ry="4" x="-38" y="-38" width="77" height="77" class="key side"/>
<rect rx="4" ry="4" x="-32" y="-36" width="65" height="65" class="key"/>
<use href="#mdi:arrow-up-bold" xlink:href="#mdi:arrow-up-bold" x="-11" y="-15" height="22" width="22.0" class="key tap glyph mdi:arrow-up-bold"/>
</g>
<g transform="translate(200, 200)" class="key keypos-10">
<rect rx="4" ry="4" x="-38" y="-38" width="77" height="77" class="key side"/>
<rect rx="4" ry="4" x="-32" y="-36" width="65" height="65" class="key"/>
<text x="0" y="-4" class="key tap">
<tspan x="0" dy="-1.0em">PAGE</tspan><tspan x="0" dy="1.0em">DOWN</tspan>
</text>
<text x="0" y="34" class="key hold"><tspan style="font-size: 83%">toggle</tspan></text>
</g>
<g transform="translate(280, 200)" class="key keypos-11">
<rect rx="4" ry="4" x="-38" y="-38" width="77" height="77" class="key side"/>
<rect rx="4" ry="4" x="-32" y="-36" width="65" height="65" class="key"/>
<text x="0" y="-4" class="key tap"><tspan style="font-size: 62%">&amp;git_pu…</tspan></text>
</g>
<g transform="translate(360, 200)" class="key keypos-12">
<rect rx="4" ry="4" x="-38" y="-38" width="77" height="77" class="key side"/>
<rect rx="4" ry="4" x="-32" y="-36" width="65" height="65" class="key"/>
<a href="#Numpad">
<text x="0" y="-4" class="key tap layer-activator"><tspan style="font-size: 83%">Numpad</tspan></text>
</a><text x="0" y="34" class="key hold"><tspan style="font-size: 83%">toggle</tspan></text>
</g>
<g transform="translate(40, 280)" class="key keypos-13">
<rect rx="4" ry="4" x="-38" y="-38" width="77" height="77" class="key side"/>
<rect rx="4" ry="4" x="-32" y="-36" width="65" height="65" class="key"/>
<use href="#mdi:arrow-left-bold" xlink:href="#mdi:arrow-left-bold" x="-11" y="-15" height="22" width="22.0" class="key tap glyph mdi:arrow-left-bold"/>
<text x="0" y="34" class="key hold"><tspan style="font-size: 83%">toggle</tspan></text>
</g>
<g transform="translate(120, 280)" class="key keypos-14">
<rect rx="4" ry="4" x="-38" y="-38" width="77" height="77" class="key side"/>
<rect rx="4" ry="4" x="-32" y="-36" width="65" height="65" class="key"/>
<use href="#mdi:arrow-down-bold" xlink:href="#mdi:arrow-down-bold" x="-11" y="-15" height="22" width="22.0" class="key tap glyph mdi:arrow-down-bold"/>
<text x="0" y="34" class="key hold"><tspan style="font-size: 83%">toggle</tspan></text>
</g>
<g transform="translate(200, 280)" class="key keypos-15">
<rect rx="4" ry="4" x="-38" y="-38" width="77" height="77" class="key side"/>
<rect rx="4" ry="4" x="-32" y="-36" width="65" height="65" class="key"/>
<use href="#mdi:arrow-right-bold" xlink:href="#mdi:arrow-right-bold" x="-11" y="-15" height="22" width="22.0" class="key tap glyph mdi:arrow-right-bold"/>
<text x="0" y="34" class="key hold"><tspan style="font-size: 83%">toggle</tspan></text>
</g>
<g transform="translate(280, 280)" class="key keypos-16">
<rect rx="4" ry="4" x="-38" y="-38" width="77" height="77" class="key side"/>
<rect rx="4" ry="4" x="-32" y="-36" width="65" height="65" class="key"/>
<use href="#mdi:keyboard-return" xlink:href="#mdi:keyboard-return" x="-11" y="-15" height="22" width="22.0" class="key tap glyph mdi:keyboard-return"/>
<text x="0" y="34" class="key hold"><tspan style="font-size: 83%">toggle</tspan></text>
</g>
</g>
</g>
<g transform="translate(30, 350)" class="layer-Numpad">
<text x="0" y="15" class="label" id="Numpad">Numpad</text>
<g transform="translate(0, 30)">
<g transform="translate(40, 40)" class="key keypos-0">
<rect rx="4" ry="4" x="-38" y="-38" width="77" height="77" class="key side"/>
<rect rx="4" ry="4" x="-32" y="-36" width="65" height="65" class="key"/>
<text x="0" y="-4" class="key tap">
<tspan x="0" dy="-0.5em">KP</tspan><tspan x="0" dy="1.0em">7</tspan>
</text>
</g>
<g transform="translate(120, 40)" class="key keypos-1">
<rect rx="4" ry="4" x="-38" y="-38" width="77" height="77" class="key side"/>
<rect rx="4" ry="4" x="-32" y="-36" width="65" height="65" class="key"/>
<text x="0" y="-4" class="key tap">
<tspan x="0" dy="-0.5em">KP</tspan><tspan x="0" dy="1.0em">8</tspan>
</text>
</g>
<g transform="translate(200, 40)" class="key keypos-2">
<rect rx="4" ry="4" x="-38" y="-38" width="77" height="77" class="key side"/>
<rect rx="4" ry="4" x="-32" y="-36" width="65" height="65" class="key"/>
<text x="0" y="-4" class="key tap">
<tspan x="0" dy="-0.5em">KP</tspan><tspan x="0" dy="1.0em">9</tspan>
</text>
</g>
<g transform="translate(280, 40)" class="key keypos-3">
<rect rx="4" ry="4" x="-38" y="-38" width="77" height="77" class="key side"/>
<rect rx="4" ry="4" x="-32" y="-36" width="65" height="65" class="key"/>
<text x="0" y="-4" class="key tap">
<tspan x="0" dy="-0.5em" style="font-size: 62%">KP</tspan><tspan x="0" dy="1.0em" style="font-size: 62%">MULTIPLY</tspan>
</text>
</g>
<g transform="translate(40, 120)" class="key keypos-4">
<rect rx="4" ry="4" x="-38" y="-38" width="77" height="77" class="key side"/>
<rect rx="4" ry="4" x="-32" y="-36" width="65" height="65" class="key"/>
<text x="0" y="-4" class="key tap">
<tspan x="0" dy="-0.5em">KP</tspan><tspan x="0" dy="1.0em">4</tspan>
</text>
</g>
<g transform="translate(120, 120)" class="key keypos-5">
<rect rx="4" ry="4" x="-38" y="-38" width="77" height="77" class="key side"/>
<rect rx="4" ry="4" x="-32" y="-36" width="65" height="65" class="key"/>
<text x="0" y="-4" class="key tap">
<tspan x="0" dy="-0.5em">KP</tspan><tspan x="0" dy="1.0em">5</tspan>
</text>
</g>
<g transform="translate(200, 120)" class="key keypos-6">
<rect rx="4" ry="4" x="-38" y="-38" width="77" height="77" class="key side"/>
<rect rx="4" ry="4" x="-32" y="-36" width="65" height="65" class="key"/>
<text x="0" y="-4" class="key tap">
<tspan x="0" dy="-0.5em">KP</tspan><tspan x="0" dy="1.0em">6</tspan>
</text>
</g>
<g transform="translate(280, 120)" class="key keypos-7">
<rect rx="4" ry="4" x="-38" y="-38" width="77" height="77" class="key side"/>
<rect rx="4" ry="4" x="-32" y="-36" width="65" height="65" class="key"/>
<text x="0" y="-4" class="key tap">
<tspan x="0" dy="-0.5em" style="font-size: 83%">KP</tspan><tspan x="0" dy="1.0em" style="font-size: 83%">DIVIDE</tspan>
</text>
</g>
<g transform="translate(40, 200)" class="key keypos-8">
<rect rx="4" ry="4" x="-38" y="-38" width="77" height="77" class="key side"/>
<rect rx="4" ry="4" x="-32" y="-36" width="65" height="65" class="key"/>
<text x="0" y="-4" class="key tap">
<tspan x="0" dy="-0.5em">KP</tspan><tspan x="0" dy="1.0em">1</tspan>
</text>
</g>
<g transform="translate(120, 200)" class="key keypos-9">
<rect rx="4" ry="4" x="-38" y="-38" width="77" height="77" class="key side"/>
<rect rx="4" ry="4" x="-32" y="-36" width="65" height="65" class="key"/>
<text x="0" y="-4" class="key tap">
<tspan x="0" dy="-0.5em">KP</tspan><tspan x="0" dy="1.0em">2</tspan>
</text>
</g>
<g transform="translate(200, 200)" class="key keypos-10">
<rect rx="4" ry="4" x="-38" y="-38" width="77" height="77" class="key side"/>
<rect rx="4" ry="4" x="-32" y="-36" width="65" height="65" class="key"/>
<text x="0" y="-4" class="key tap">
<tspan x="0" dy="-0.5em">KP</tspan><tspan x="0" dy="1.0em">3</tspan>
</text>
</g>
<g transform="translate(280, 200)" class="key keypos-11">
<rect rx="4" ry="4" x="-38" y="-38" width="77" height="77" class="key side"/>
<rect rx="4" ry="4" x="-32" y="-36" width="65" height="65" class="key"/>
<text x="0" y="-4" class="key tap">
<tspan x="0" dy="-0.5em">KP</tspan><tspan x="0" dy="1.0em">MINUS</tspan>
</text>
</g>
<g transform="translate(360, 200)" class="key keypos-12">
<rect rx="4" ry="4" x="-38" y="-38" width="77" height="77" class="key side"/>
<rect rx="4" ry="4" x="-32" y="-36" width="65" height="65" class="key"/>
<a href="#BT">
<text x="0" y="-4" class="key tap layer-activator">BT</text>
</a><text x="0" y="34" class="key hold"><tspan style="font-size: 83%">toggle</tspan></text>
</g>
<g transform="translate(40, 280)" class="key keypos-13">
<rect rx="4" ry="4" x="-38" y="-38" width="77" height="77" class="key side"/>
<rect rx="4" ry="4" x="-32" y="-36" width="65" height="65" class="key"/>
<text x="0" y="-4" class="key tap">
<tspan x="0" dy="-0.5em">KP</tspan><tspan x="0" dy="1.0em">0</tspan>
</text>
</g>
<g transform="translate(120, 280)" class="key keypos-14">
<rect rx="4" ry="4" x="-38" y="-38" width="77" height="77" class="key side"/>
<rect rx="4" ry="4" x="-32" y="-36" width="65" height="65" class="key"/>
<text x="0" y="-4" class="key tap">
<tspan x="0" dy="-0.5em">KP</tspan><tspan x="0" dy="1.0em">DOT</tspan>
</text>
</g>
<g transform="translate(200, 280)" class="key keypos-15">
<rect rx="4" ry="4" x="-38" y="-38" width="77" height="77" class="key side"/>
<rect rx="4" ry="4" x="-32" y="-36" width="65" height="65" class="key"/>
<text x="0" y="-4" class="key tap">
<tspan x="0" dy="-0.5em">KP</tspan><tspan x="0" dy="1.0em">PLUS</tspan>
</text>
</g>
<g transform="translate(280, 280)" class="key keypos-16">
<rect rx="4" ry="4" x="-38" y="-38" width="77" height="77" class="key side"/>
<rect rx="4" ry="4" x="-32" y="-36" width="65" height="65" class="key"/>
<text x="0" y="-4" class="key tap">
<tspan x="0" dy="-0.5em">KP</tspan><tspan x="0" dy="1.0em">EQUAL</tspan>
</text>
</g>
</g>
</g>
<g transform="translate(30, 700)" class="layer-BT">
<text x="0" y="15" class="label" id="BT">BT</text>
<g transform="translate(0, 30)">
<g transform="translate(40, 40)" class="key keypos-0">
<rect rx="4" ry="4" x="-38" y="-38" width="77" height="77" class="key side"/>
<rect rx="4" ry="4" x="-32" y="-36" width="65" height="65" class="key"/>
<use href="#mdi:bluetooth-off" xlink:href="#mdi:bluetooth-off" x="-11" y="-15" height="22" width="22.0" class="key tap glyph mdi:bluetooth-off"/>
</g>
<g transform="translate(120, 40)" class="key keypos-1">
<rect rx="4" ry="4" x="-38" y="-38" width="77" height="77" class="key side"/>
<rect rx="4" ry="4" x="-32" y="-36" width="65" height="65" class="key"/>
</g>
<g transform="translate(200, 40)" class="key keypos-2">
<rect rx="4" ry="4" x="-38" y="-38" width="77" height="77" class="key side"/>
<rect rx="4" ry="4" x="-32" y="-36" width="65" height="65" class="key"/>
</g>
<g transform="translate(280, 40)" class="key keypos-3">
<rect rx="4" ry="4" x="-38" y="-38" width="77" height="77" class="key side"/>
<rect rx="4" ry="4" x="-32" y="-36" width="65" height="65" class="key"/>
<text x="0" y="-4" class="key tap"><tspan style="font-size: 62%">&amp;bootlo…</tspan></text>
</g>
<g transform="translate(40, 120)" class="key keypos-4">
<rect rx="4" ry="4" x="-38" y="-38" width="77" height="77" class="key side"/>
<rect rx="4" ry="4" x="-32" y="-36" width="65" height="65" class="key"/>
</g>
<g transform="translate(120, 120)" class="key keypos-5">
<rect rx="4" ry="4" x="-38" y="-38" width="77" height="77" class="key side"/>
<rect rx="4" ry="4" x="-32" y="-36" width="65" height="65" class="key"/>
</g>
<g transform="translate(200, 120)" class="key keypos-6">
<rect rx="4" ry="4" x="-38" y="-38" width="77" height="77" class="key side"/>
<rect rx="4" ry="4" x="-32" y="-36" width="65" height="65" class="key"/>
</g>
<g transform="translate(280, 120)" class="key keypos-7">
<rect rx="4" ry="4" x="-38" y="-38" width="77" height="77" class="key side"/>
<rect rx="4" ry="4" x="-32" y="-36" width="65" height="65" class="key"/>
</g>
<g transform="translate(40, 200)" class="key keypos-8">
<rect rx="4" ry="4" x="-38" y="-38" width="77" height="77" class="key side"/>
<rect rx="4" ry="4" x="-32" y="-36" width="65" height="65" class="key"/>
<use href="#mdi:bluetooth-connect" xlink:href="#mdi:bluetooth-connect" x="-11" y="-15" height="22" width="22.0" class="key tap glyph mdi:bluetooth-connect"/>
<text x="0" y="34" class="key hold">0</text>
</g>
<g transform="translate(120, 200)" class="key keypos-9">
<rect rx="4" ry="4" x="-38" y="-38" width="77" height="77" class="key side"/>
<rect rx="4" ry="4" x="-32" y="-36" width="65" height="65" class="key"/>
<use href="#mdi:bluetooth-connect" xlink:href="#mdi:bluetooth-connect" x="-11" y="-15" height="22" width="22.0" class="key tap glyph mdi:bluetooth-connect"/>
<text x="0" y="34" class="key hold">1</text>
</g>
<g transform="translate(200, 200)" class="key keypos-10">
<rect rx="4" ry="4" x="-38" y="-38" width="77" height="77" class="key side"/>
<rect rx="4" ry="4" x="-32" y="-36" width="65" height="65" class="key"/>
<use href="#mdi:bluetooth-connect" xlink:href="#mdi:bluetooth-connect" x="-11" y="-15" height="22" width="22.0" class="key tap glyph mdi:bluetooth-connect"/>
<text x="0" y="34" class="key hold">2</text>
</g>
<g transform="translate(280, 200)" class="key keypos-11">
<rect rx="4" ry="4" x="-38" y="-38" width="77" height="77" class="key side"/>
<rect rx="4" ry="4" x="-32" y="-36" width="65" height="65" class="key"/>
</g>
<g transform="translate(360, 200)" class="key keypos-12">
<rect rx="4" ry="4" x="-38" y="-38" width="77" height="77" class="key side"/>
<rect rx="4" ry="4" x="-32" y="-36" width="65" height="65" class="key"/>
<a href="#Nav">
<text x="0" y="-4" class="key tap layer-activator">Nav</text>
</a><text x="0" y="34" class="key hold"><tspan style="font-size: 83%">toggle</tspan></text>
</g>
<g transform="translate(40, 280)" class="key keypos-13">
<rect rx="4" ry="4" x="-38" y="-38" width="77" height="77" class="key side"/>
<rect rx="4" ry="4" x="-32" y="-36" width="65" height="65" class="key"/>
</g>
<g transform="translate(120, 280)" class="key keypos-14">
<rect rx="4" ry="4" x="-38" y="-38" width="77" height="77" class="key side"/>
<rect rx="4" ry="4" x="-32" y="-36" width="65" height="65" class="key"/>
</g>
<g transform="translate(200, 280)" class="key keypos-15">
<rect rx="4" ry="4" x="-38" y="-38" width="77" height="77" class="key side"/>
<rect rx="4" ry="4" x="-32" y="-36" width="65" height="65" class="key"/>
</g>
<g transform="translate(280, 280)" class="key keypos-16">
<rect rx="4" ry="4" x="-38" y="-38" width="77" height="77" class="key side"/>
<rect rx="4" ry="4" x="-32" y="-36" width="65" height="65" class="key"/>
</g>
</g>
</g>
</svg>
